# xmcd
#
# Track frame offsets:
#	150
#	17702
#	34680
#	54362
#	67577
#	85655
#	105120
#	118870
#	135812
#	152410
#	171545
#	190007
#	209957
#	226500
#
# Disc length: 3203 seconds
#
# Revision: 0
# Processed by: cddbd v1.5.2PL0 Copyright (c) Steve Scherf et al.
# Submitted via: EasyCDDAExtractor 10.2.0.1
#
DISCID=a10c810e
DTITLE=Monica Silverstrand - Been There, Done That
DYEAR=1900
DGENRE=
TTITLE0=Been There, Done That
TTITLE1=This is it
TTITLE2=What's Underneath
TTITLE3=Shoo Shoo
TTITLE4=Love Ain't No Easy Thing
TTITLE5=I Can't Go On
TTITLE6=Goin', Goin' Gone
TTITLE7=Then Again
TTITLE8=Since You Been Gone
TTITLE9=I Still Haven't Found What I'm Looking Foor
TTITLE10=File It Under "H"
TTITLE11=Are You That Man?
TTITLE12=Rowdy Kind Saturday Night
TTITLE13=Acquainted With The Blues
EXTD=
EXTT0=
EXTT1=
EXTT2=
EXTT3=
EXTT4=
EXTT5=
EXTT6=
EXTT7=
EXTT8=
EXTT9=
EXTT10=
EXTT11=
EXTT12=
EXTT13=
PLAYORDER=
